<?xml version="1.0" encoding="UTF-8"?>
<svg xmlns="http://www.w3.org/2000/svg" xmlns:xlink="http://www.w3.org/1999/xlink" viewBox="0 0 623.66 420.57">
  <defs>
    <style>
      .cls-1, .cls-2, .cls-3, .cls-4, .cls-5, .cls-6, .cls-7, .cls-8, .cls-9, .cls-10, .cls-11 {
        fill: none;
      }

      .cls-2, .cls-12 {
        opacity: .33;
      }

      .cls-3 {
        opacity: .32;
      }

      .cls-4 {
        opacity: .35;
      }

      .cls-13 {
        fill: url(#linear-gradient);
      }

      .cls-5 {
        clip-path: url(#clippath-3);
      }

      .cls-6 {
        clip-path: url(#clippath-2);
      }

      .cls-7 {
        clip-path: url(#clippath-1);
      }

      .cls-8, .cls-12, .cls-14, .cls-15, .cls-16, .cls-17 {
        isolation: isolate;
      }

      .cls-18 {
        fill: #ffdcff;
      }

      .cls-19, .cls-15 {
        fill: #fff;
      }

      .cls-20 {
        fill: #ffecff;
      }

      .cls-21 {
        fill: #ffe7ff;
      }

      .cls-22 {
        fill: #ffe4ff;
      }

      .cls-23, .cls-12, .cls-14 {
        fill: #fea7af;
      }

      .cls-24 {
        fill: #a630b0;
      }

      .cls-25 {
        fill: #dda9ff;
      }

      .cls-26 {
        fill: #cc7dff;
      }

      .cls-27 {
        fill: #7c26a4;
      }

      .cls-14, .cls-15 {
        opacity: .29;
      }

      .cls-28 {
        fill: url(#New_Gradient_Swatch_copy-3);
      }

      .cls-29 {
        fill: url(#radial-gradient-10);
      }

      .cls-30 {
        fill: url(#radial-gradient-11);
      }

      .cls-31 {
        fill: url(#radial-gradient-12);
      }

      .cls-32 {
        fill: url(#radial-gradient-13);
      }

      .cls-33 {
        fill: #552c84;
        opacity: .42;
      }

      .cls-33, .cls-34 {
        mix-blend-mode: multiply;
      }

      .cls-9 {
        opacity: .11;
      }

      .cls-35 {
        fill: url(#radial-gradient-6);
      }

      .cls-36 {
        fill: url(#radial-gradient-5);
      }

      .cls-37 {
        fill: url(#radial-gradient-3);
      }

      .cls-38 {
        fill: url(#radial-gradient-4);
      }

      .cls-39 {
        fill: url(#radial-gradient-9);
      }

      .cls-40 {
        fill: url(#radial-gradient-8);
      }

      .cls-41 {
        fill: url(#radial-gradient-7);
      }

      .cls-42 {
        fill: url(#radial-gradient-2);
      }

      .cls-43 {
        fill: url(#linear-gradient-8);
      }

      .cls-44 {
        fill: url(#linear-gradient-9);
      }

      .cls-45 {
        fill: url(#linear-gradient-3);
      }

      .cls-46 {
        fill: url(#linear-gradient-4);
      }

      .cls-47 {
        fill: url(#linear-gradient-2);
      }

      .cls-48 {
        fill: url(#linear-gradient-6);
      }

      .cls-49 {
        fill: url(#linear-gradient-7);
      }

      .cls-50 {
        fill: url(#linear-gradient-5);
      }

      .cls-51 {
        fill: url(#radial-gradient);
      }

      .cls-52 {
        fill: url(#linear-gradient-14);
      }

      .cls-53 {
        fill: url(#linear-gradient-18);
      }

      .cls-54 {
        fill: url(#linear-gradient-22);
      }

      .cls-55 {
        fill: url(#linear-gradient-20);
      }

      .cls-56 {
        fill: url(#linear-gradient-21);
      }

      .cls-57 {
        fill: url(#linear-gradient-23);
      }

      .cls-58 {
        fill: url(#linear-gradient-15);
      }

      .cls-59 {
        fill: url(#linear-gradient-19);
      }

      .cls-60 {
        fill: url(#linear-gradient-16);
      }

      .cls-61 {
        fill: url(#linear-gradient-17);
      }

      .cls-62 {
        fill: url(#linear-gradient-13);
      }

      .cls-63 {
        fill: url(#linear-gradient-12);
      }

      .cls-64 {
        fill: url(#linear-gradient-10);
      }

      .cls-65 {
        fill: url(#linear-gradient-11);
      }

      .cls-66 {
        fill: url(#linear-gradient-24);
      }

      .cls-67 {
        fill: url(#linear-gradient-26);
      }

      .cls-68 {
        fill: url(#linear-gradient-25);
      }

      .cls-69 {
        fill: url(#linear-gradient-28);
      }

      .cls-70 {
        fill: url(#linear-gradient-29);
      }

      .cls-71 {
        fill: url(#linear-gradient-33);
      }

      .cls-72 {
        fill: url(#linear-gradient-30);
      }

      .cls-73 {
        fill: url(#linear-gradient-32);
      }

      .cls-74 {
        fill: url(#linear-gradient-31);
      }

      .cls-16 {
        fill: url(#New_Gradient_Swatch_copy-2);
      }

      .cls-16, .cls-17 {
        opacity: .25;
      }

      .cls-34 {
        fill: url(#linear-gradient-27);
      }

      .cls-10 {
        clip-path: url(#clippath);
      }

      .cls-17 {
        fill: url(#New_Gradient_Swatch_copy);
      }

      .cls-11 {
        opacity: .22;
      }
    </style>
    <clipPath id="clippath">
      <rect class="cls-1" y="47.66" width="580.67" height="372.91"/>
    </clipPath>
    <clipPath id="clippath-1">
      <rect class="cls-1" width="623.66" height="420.56"/>
    </clipPath>
    <radialGradient id="New_Gradient_Swatch_copy" data-name="New Gradient Swatch copy" cx="346.05" cy="-1442.23" fx="346.05" fy="-1442.23" r="270.05" gradientTransform="translate(-46.73 -1328.39) scale(1.07 -1.07)" gradientUnits="userSpaceOnUse">
      <stop offset="0" stop-color="#de3dbf"/>
      <stop offset="1" stop-color="#67219e"/>
    </radialGradient>
    <radialGradient id="New_Gradient_Swatch_copy-2" data-name="New Gradient Swatch copy" cx="434.36" cy="-1258.27" fx="434.36" fy="-1258.27" r="407.57" gradientTransform="translate(-42.7 -1425.3) scale(1.22 -1.22)" xlink:href="#New_Gradient_Swatch_copy"/>
    <radialGradient id="New_Gradient_Swatch_copy-3" data-name="New Gradient Swatch copy" cx="536.97" cy="-1483.07" fx="536.97" fy="-1483.07" r="602.36" gradientTransform="translate(-46.73 -1315.35) scale(1.07 -1.05)" xlink:href="#New_Gradient_Swatch_copy"/>
    <clipPath id="clippath-2">
      <rect class="cls-1" y="47.66" width="580.67" height="372.91"/>
    </clipPath>
    <linearGradient id="linear-gradient" x1="406.88" y1="-1681.34" x2="416.98" y2="-1699.03" gradientTransform="translate(0 -1333.6) scale(1 -1)" gradientUnits="userSpaceOnUse">
      <stop offset="0" stop-color="#fea7af"/>
      <stop offset=".97" stop-color="#ea47ac"/>
    </linearGradient>
    <linearGradient id="linear-gradient-2" x1="174.36" y1="-1741.26" x2="189.23" y2="-1767.31" gradientTransform="translate(0 -1333.61) scale(1 -1)" xlink:href="#linear-gradient"/>
    <linearGradient id="linear-gradient-3" x1="-563.85" y1="-1737.79" x2="-546.68" y2="-1737.79" gradientTransform="translate(-5.63 -1574) rotate(-20.05) scale(1 -1)" xlink:href="#linear-gradient"/>
    <linearGradient id="linear-gradient-4" x1="451.32" y1="-1482.2" x2="488.2" y2="-1482.2" gradientTransform="translate(-6.93 -1303.4) rotate(14.81) scale(1 -1)" xlink:href="#linear-gradient"/>
    <linearGradient id="linear-gradient-5" x1="-2228.44" y1="871.82" x2="-2173.41" y2="871.82" gradientTransform="translate(-940.43 -1797.58) rotate(-138.39) scale(1 -1)" gradientUnits="userSpaceOnUse">
      <stop offset="0" stop-color="#fea7af"/>
      <stop offset=".99" stop-color="#ea47ac" stop-opacity="0"/>
    </linearGradient>
    <linearGradient id="linear-gradient-6" x1="-2227.73" y1="871.82" x2="-2194.01" y2="871.82" xlink:href="#linear-gradient-5"/>
    <linearGradient id="linear-gradient-7" x1="-2328.87" y1="701.33" x2="-2302.44" y2="701.33" xlink:href="#linear-gradient-5"/>
    <linearGradient id="linear-gradient-8" x1="-2328.53" y1="701.34" x2="-2312.35" y2="701.34" xlink:href="#linear-gradient-5"/>
    <linearGradient id="linear-gradient-9" x1="-2178.09" y1="914.74" x2="-2105.02" y2="914.74" xlink:href="#linear-gradient-5"/>
    <linearGradient id="linear-gradient-10" x1="-2177.15" y1="914.75" x2="-2132.38" y2="914.75" xlink:href="#linear-gradient-5"/>
    <linearGradient id="linear-gradient-11" x1="-2129.79" y1="929.31" x2="-2096.26" y2="929.31" xlink:href="#linear-gradient-5"/>
    <linearGradient id="linear-gradient-12" x1="-2129.35" y1="929.31" x2="-2108.82" y2="929.31" xlink:href="#linear-gradient-5"/>
    <linearGradient id="linear-gradient-13" x1="-2418.71" y1="674.9" x2="-2385.19" y2="674.9" xlink:href="#linear-gradient-5"/>
    <linearGradient id="linear-gradient-14" x1="-2418.28" y1="674.9" x2="-2397.75" y2="674.9" xlink:href="#linear-gradient-5"/>
    <linearGradient id="linear-gradient-15" x1="108.93" y1="-1557" x2="173.64" y2="-1557" gradientTransform="translate(0 -1333.61) scale(1 -1)" xlink:href="#linear-gradient"/>
    <linearGradient id="linear-gradient-16" x1="112.43" y1="-1535.65" x2="170.87" y2="-1535.65" gradientTransform="translate(0 -1333.61) scale(1 -1)" gradientUnits="userSpaceOnUse">
      <stop offset="0" stop-color="#fea7af"/>
      <stop offset=".05" stop-color="#fca0ae"/>
      <stop offset=".32" stop-color="#f47aad"/>
      <stop offset=".58" stop-color="#ee5eac"/>
      <stop offset=".81" stop-color="#eb4dac"/>
      <stop offset=".97" stop-color="#ea47ac"/>
    </linearGradient>
    <linearGradient id="linear-gradient-17" x1="109.18" y1="-1575.18" x2="172.4" y2="-1575.18" gradientTransform="translate(0 -1333.61) scale(1 -1)" gradientUnits="userSpaceOnUse">
      <stop offset="0" stop-color="#fea7af"/>
      <stop offset=".13" stop-color="#f993ae"/>
      <stop offset=".36" stop-color="#f272ad"/>
      <stop offset=".59" stop-color="#ee5aac"/>
      <stop offset=".8" stop-color="#eb4bac"/>
      <stop offset=".97" stop-color="#ea47ac"/>
    </linearGradient>
    <linearGradient id="linear-gradient-18" x1="983.58" y1="-1378.06" x2="1047.31" y2="-1378.06" gradientTransform="translate(-22.17 -1246.48) rotate(18.68) scale(1 -1)" gradientUnits="userSpaceOnUse">
      <stop offset="0" stop-color="#de3dbf"/>
      <stop offset="1" stop-color="#67219e"/>
    </linearGradient>
    <linearGradient id="linear-gradient-19" x1="987.01" y1="-1357.04" x2="1044.57" y2="-1357.04" gradientTransform="translate(-22.17 -1246.48) rotate(18.68) scale(1 -1)" gradientUnits="userSpaceOnUse">
      <stop offset="0" stop-color="#de3dbf"/>
      <stop offset=".12" stop-color="#ca38b9"/>
      <stop offset=".39" stop-color="#9f2ead"/>
      <stop offset=".64" stop-color="#8027a5"/>
      <stop offset=".85" stop-color="#6d229f"/>
      <stop offset="1" stop-color="#67219e"/>
    </linearGradient>
    <linearGradient id="linear-gradient-20" x1="983.83" y1="-1395.96" x2="1046.08" y2="-1395.96" gradientTransform="translate(-22.17 -1246.48) rotate(18.68) scale(1 -1)" gradientUnits="userSpaceOnUse">
      <stop offset="0" stop-color="#de3dbf"/>
      <stop offset=".12" stop-color="#c336b7"/>
      <stop offset=".28" stop-color="#a12eae"/>
      <stop offset=".45" stop-color="#8828a7"/>
      <stop offset=".62" stop-color="#7524a2"/>
      <stop offset=".8" stop-color="#6a219e"/>
      <stop offset="1" stop-color="#67219e"/>
    </linearGradient>
    <linearGradient id="linear-gradient-21" x1="710.17" y1="-494.84" x2="724.3" y2="-494.84" gradientTransform="translate(-373.7 103.3) rotate(35.44)" gradientUnits="userSpaceOnUse">
      <stop offset="0" stop-color="#a02cc2"/>
      <stop offset=".01" stop-color="#9e2bc1"/>
      <stop offset=".33" stop-color="#7221a5"/>
      <stop offset=".61" stop-color="#511a92"/>
      <stop offset=".84" stop-color="#3e1686"/>
      <stop offset="1" stop-color="#371582"/>
    </linearGradient>
    <linearGradient id="linear-gradient-22" x1="710.91" y1="-494.4" x2="721.5" y2="-494.4" xlink:href="#linear-gradient-21"/>
    <radialGradient id="radial-gradient" cx="703.28" cy="-442.37" fx="703.28" fy="-442.37" r="28.73" gradientTransform="translate(-373.7 103.3) rotate(35.44)" gradientUnits="userSpaceOnUse">
      <stop offset="0" stop-color="#a02cc2"/>
      <stop offset="1" stop-color="#371582"/>
    </radialGradient>
    <radialGradient id="radial-gradient-2" cx="703.76" cy="-442.51" fx="703.76" fy="-442.51" r="25.58" xlink:href="#radial-gradient"/>
    <radialGradient id="radial-gradient-3" cx="707.27" cy="-422.19" fx="707.27" fy="-422.19" r="15.62" gradientTransform="translate(-262.19 597.17)" xlink:href="#radial-gradient"/>
    <radialGradient id="radial-gradient-4" cx="569.09" cy="-12.73" fx="569.09" fy="-12.73" r="15.62" gradientTransform="translate(-47.12 168.32) scale(.88 .45)" gradientUnits="userSpaceOnUse">
      <stop offset="0" stop-color="#371582"/>
      <stop offset=".99" stop-color="#a02cc2"/>
    </radialGradient>
    <linearGradient id="linear-gradient-23" x1="761.66" y1="-493.88" x2="775.78" y2="-493.88" xlink:href="#linear-gradient-21"/>
    <linearGradient id="linear-gradient-24" x1="762.05" y1="-493.31" x2="772.64" y2="-493.31" xlink:href="#linear-gradient-21"/>
    <radialGradient id="radial-gradient-5" cx="754.76" cy="-441.42" fx="754.76" fy="-441.42" r="28.73" xlink:href="#radial-gradient"/>
    <radialGradient id="radial-gradient-6" cx="756.23" cy="-441.39" fx="756.23" fy="-441.39" r="24.73" xlink:href="#radial-gradient"/>
    <radialGradient id="radial-gradient-7" cx="758.75" cy="-421.24" fx="758.75" fy="-421.24" r="15.62" gradientTransform="translate(-272.29 626.85)" xlink:href="#radial-gradient"/>
    <radialGradient id="radial-gradient-8" cx="627.38" cy="-10.6" fx="627.38" fy="-10.6" r="15.62" gradientTransform="translate(-57.22 198) scale(.88 .45)" xlink:href="#radial-gradient-4"/>
    <linearGradient id="linear-gradient-25" x1="721.59" y1="-513" x2="763.7" y2="-513" gradientTransform="translate(-373.7 103.3) rotate(35.44)" gradientUnits="userSpaceOnUse">
      <stop offset="0" stop-color="#a02cc2"/>
      <stop offset="1" stop-color="#371582"/>
    </linearGradient>
    <linearGradient id="linear-gradient-26" x1="721.93" y1="-511.92" x2="755.21" y2="-511.92" xlink:href="#linear-gradient-25"/>
    <clipPath id="clippath-3">
      <path class="cls-1" d="m585.18,51.63l.29-7.61c.15-3.79-3.64-6.49-7.17-5.11h-.02s-7.07,2.77-7.07,2.77c-13.84,5.4-25.8,14.73-34.42,26.84l-3.02,4.24c.23-.64.46-1.29.68-1.94l1.92-5.85c.57-1.75-1.24-3.22-2.78-2.51-.14.06-.27.14-.4.24l-4.9,3.73c-5.83,4.45-10.97,9.75-15.22,15.73l-54.73,76.88-12.41,9.82,7.26,5.17-4.63-3.29-.55.77,10.26,7.3-1.04,1.46,34.31,24.42.49-.68,10.4,7.4.55-.77-.82-.58h0l3.86,2.75,5.22-14.94,54.73-76.88c4.26-5.98,7.58-12.56,9.88-19.53l1.92-5.85c.57-1.75-1.24-3.22-2.78-2.51-.14.06-.27.14-.4.24l-4.9,3.73c-1.25.95-2.46,1.96-3.65,2.99l5.07-7.12c8.62-12.11,13.51-26.47,14.08-41.31Z"/>
    </clipPath>
    <linearGradient id="linear-gradient-27" x1="502.68" y1="106.02" x2="526.5" y2="158.32" gradientUnits="userSpaceOnUse">
      <stop offset="0" stop-color="#de3dbf"/>
      <stop offset="1" stop-color="#67219e"/>
    </linearGradient>
    <radialGradient id="radial-gradient-9" cx="413.54" cy="-517.7" fx="413.54" fy="-517.7" r="94.93" gradientTransform="translate(-61.2 325.51) rotate(35.44) scale(.77 1)" gradientUnits="userSpaceOnUse">
      <stop offset="0" stop-color="#67219e"/>
      <stop offset=".99" stop-color="#de3dbf"/>
    </radialGradient>
    <radialGradient id="radial-gradient-10" cx="699.75" cy="-516.33" fx="699.75" fy="-516.33" r="89.4" gradientTransform="translate(-373.7 103.3) rotate(35.44)" gradientUnits="userSpaceOnUse">
      <stop offset="0" stop-color="#de3dbf"/>
      <stop offset="1" stop-color="#67219e"/>
    </radialGradient>
    <radialGradient id="radial-gradient-11" cx="701.68" cy="-489.06" fx="701.68" fy="-489.06" r="60.54" xlink:href="#radial-gradient-10"/>
    <radialGradient id="radial-gradient-12" cx="744.46" cy="-516.33" fx="744.46" fy="-516.33" r="89.4" xlink:href="#radial-gradient-10"/>
    <radialGradient id="radial-gradient-13" cx="764.03" cy="-489.37" fx="764.03" fy="-489.37" r="60.87" xlink:href="#radial-gradient-10"/>
    <linearGradient id="linear-gradient-28" x1="818.44" y1="-502.51" x2="760.63" y2="-499.37" gradientTransform="translate(-373.7 103.3) rotate(35.44)" xlink:href="#linear-gradient-27"/>
    <linearGradient id="linear-gradient-29" x1="730.87" y1="-498.08" x2="754.5" y2="-498.08" gradientTransform="translate(-373.7 103.3) rotate(35.44)" xlink:href="#linear-gradient-27"/>
    <linearGradient id="linear-gradient-30" x1="457.52" y1="186.8" x2="503.78" y2="186.8" xlink:href="#linear-gradient-27"/>
    <linearGradient id="linear-gradient-31" x1="737.03" y1="-543.21" x2="753.89" y2="-543.21" gradientTransform="translate(-373.7 103.3) rotate(35.44)" xlink:href="#linear-gradient-27"/>
    <linearGradient id="linear-gradient-32" x1="737.73" y1="-564.41" x2="757.2" y2="-565.73" gradientTransform="translate(-373.7 103.3) rotate(35.44)" xlink:href="#linear-gradient-27"/>
    <linearGradient id="linear-gradient-33" x1="745.83" y1="-463.84" x2="743.72" y2="-403.49" gradientTransform="translate(-373.7 103.3) rotate(35.44)" xlink:href="#linear-gradient-27"/>
  </defs>
  <g class="cls-8">
    <g id="Layer_2" data-name="Layer 2">
      <g id="OBJECTS">
        <g id="Layer_2-2" data-name="Layer 2">
          <g id="OBJECTS-2" data-name="OBJECTS">
            <g>
              <g class="cls-3">
                <g class="cls-10">
                  <g class="cls-9">
                    <g>
                      <path class="cls-24" d="m21.85,27.9c0,.7-.57,1.27-1.27,1.27s-1.27-.57-1.27-1.27.57-1.27,1.27-1.27,1.27.57,1.27,1.27Z"/>
                      <path class="cls-24" d="m75.68,27.9c0,.7-.57,1.27-1.27,1.27s-1.27-.57-1.27-1.27.57-1.27,1.27-1.27,1.27.57,1.27,1.27Z"/>
                      <path class="cls-24" d="m129.52,27.9c0,.7-.57,1.27-1.27,1.27s-1.27-.57-1.27-1.27.57-1.27,1.27-1.27,1.27.57,1.27,1.27Z"/>
                      <path class="cls-24" d="m183.35,27.9c0,.7-.57,1.27-1.27,1.27s-1.27-.57-1.27-1.27.57-1.27,1.27-1.27,1.27.57,1.27,1.27Z"/>
                      <path class="cls-24" d="m237.18,27.9c0,.7-.57,1.27-1.27,1.27s-1.27-.57-1.27-1.27.57-1.27,1.27-1.27,1.27.57,1.27,1.27Z"/>
                      <path class="cls-24" d="m291.01,27.9c0,.7-.57,1.27-1.27,1.27s-1.27-.57-1.27-1.27.57-1.27,1.27-1.27,1.27.57,1.27,1.27Z"/>
                      <path class="cls-24" d="m344.85,27.9c0,.7-.57,1.27-1.27,1.27s-1.27-.57-1.27-1.27.57-1.27,1.27-1.27,1.27.57,1.27,1.27Z"/>
                      <path class="cls-24" d="m398.68,27.9c0,.7-.57,1.27-1.27,1.27s-1.27-.57-1.27-1.27.57-1.27,1.27-1.27,1.27.57,1.27,1.27Z"/>
                      <path class="cls-24" d="m452.51,27.9c0,.7-.57,1.27-1.27,1.27s-1.27-.57-1.27-1.27.57-1.27,1.27-1.27,1.27.57,1.27,1.27Z"/>
                      <path class="cls-24" d="m506.34,27.9c0,.7-.57,1.27-1.27,1.27s-1.27-.57-1.27-1.27.57-1.27,1.27-1.27,1.27.57,1.27,1.27Z"/>
                      <path class="cls-24" d="m560.18,27.9c0,.7-.57,1.27-1.27,1.27s-1.27-.57-1.27-1.27.57-1.27,1.27-1.27,1.27.57,1.27,1.27Z"/>
                    </g>
                    <g>
                      <path class="cls-24" d="m21.85,79.45c0,.7-.57,1.27-1.27,1.27s-1.27-.57-1.27-1.27.57-1.27,1.27-1.27,1.27.57,1.27,1.27Z"/>
                      <path class="cls-24" d="m75.68,79.45c0,.7-.57,1.27-1.27,1.27s-1.27-.57-1.27-1.27.57-1.27,1.27-1.27,1.27.57,1.27,1.27Z"/>
                      <path class="cls-24" d="m129.52,79.45c0,.7-.57,1.27-1.27,1.27s-1.27-.57-1.27-1.27.57-1.27,1.27-1.27,1.27.57,1.27,1.27Z"/>
                      <path class="cls-24" d="m183.35,79.45c0,.7-.57,1.27-1.27,1.27s-1.27-.57-1.27-1.27.57-1.27,1.27-1.27,1.27.57,1.27,1.27Z"/>
                      <path class="cls-24" d="m237.18,79.45c0,.7-.57,1.27-1.27,1.27s-1.27-.57-1.27-1.27.57-1.27,1.27-1.27,1.27.57,1.27,1.27Z"/>
                      <path class="cls-24" d="m291.01,79.45c0,.7-.57,1.27-1.27,1.27s-1.27-.57-1.27-1.27.57-1.27,1.27-1.27,1.27.57,1.27,1.27Z"/>
                      <path class="cls-24" d="m344.85,79.45c0,.7-.57,1.27-1.27,1.27s-1.27-.57-1.27-1.27.57-1.27,1.27-1.27,1.27.57,1.27,1.27Z"/>
                      <path class="cls-24" d="m398.68,79.45c0,.7-.57,1.27-1.27,1.27s-1.27-.57-1.27-1.27.57-1.27,1.27-1.27,1.27.57,1.27,1.27Z"/>
                      <path class="cls-24" d="m452.51,79.45c0,.7-.57,1.27-1.27,1.27s-1.27-.57-1.27-1.27.57-1.27,1.27-1.27,1.27.57,1.27,1.27Z"/>
                      <path class="cls-24" d="m506.34,79.45c0,.7-.57,1.27-1.27,1.27s-1.27-.57-1.27-1.27.57-1.27,1.27-1.27,1.27.57,1.27,1.27Z"/>
                      <path class="cls-24" d="m560.18,79.45c0,.7-.57,1.27-1.27,1.27s-1.27-.57-1.27-1.27.57-1.27,1.27-1.27,1.27.57,1.27,1.27Z"/>
                    </g>
                    <g>
                      <path class="cls-24" d="m21.85,131c0,.7-.57,1.27-1.27,1.27s-1.27-.57-1.27-1.27.57-1.27,1.27-1.27,1.27.57,1.27,1.27Z"/>
                      <path class="cls-24" d="m75.68,131c0,.7-.57,1.27-1.27,1.27s-1.27-.57-1.27-1.27.57-1.27,1.27-1.27,1.27.57,1.27,1.27Z"/>
                      <path class="cls-24" d="m129.52,131c0,.7-.57,1.27-1.27,1.27s-1.27-.57-1.27-1.27.57-1.27,1.27-1.27,1.27.57,1.27,1.27Z"/>
                      <path class="cls-24" d="m183.35,131c0,.7-.57,1.27-1.27,1.27s-1.27-.57-1.27-1.27.57-1.27,1.27-1.27,1.27.57,1.27,1.27Z"/>
                      <path class="cls-24" d="m237.18,131c0,.7-.57,1.27-1.27,1.27s-1.27-.57-1.27-1.27.57-1.27,1.27-1.27,1.27.57,1.27,1.27Z"/>
                      <path class="cls-24" d="m291.01,131c0,.7-.57,1.27-1.27,1.27s-1.27-.57-1.27-1.27.57-1.27,1.27-1.27,1.27.57,1.27,1.27Z"/>
                      <path class="cls-24" d="m344.85,131c0,.7-.57,1.27-1.27,1.27s-1.27-.57-1.27-1.27.57-1.27,1.27-1.27,1.27.57,1.27,1.27Z"/>
                      <path class="cls-24" d="m398.68,131c0,.7-.57,1.27-1.27,1.27s-1.27-.57-1.27-1.27.57-1.27,1.27-1.27,1.27.57,1.27,1.27Z"/>
                      <path class="cls-24" d="m452.51,131c0,.7-.57,1.27-1.27,1.27s-1.27-.57-1.27-1.27.57-1.27,1.27-1.27,1.27.57,1.27,1.27Z"/>
                      <path class="cls-24" d="m506.34,131c0,.7-.57,1.27-1.27,1.27s-1.27-.57-1.27-1.27.57-1.27,1.27-1.27,1.27.57,1.27,1.27Z"/>
                      <path class="cls-24" d="m560.18,131c0,.7-.57,1.27-1.27,1.27s-1.27-.57-1.27-1.27.57-1.27,1.27-1.27,1.27.57,1.27,1.27Z"/>
                    </g>
                    <g>
                      <path class="cls-24" d="m21.85,182.56c0,.7-.57,1.27-1.27,1.27s-1.27-.57-1.27-1.27.57-1.27,1.27-1.27,1.27.57,1.27,1.27Z"/>
                      <path class="cls-24" d="m75.68,182.56c0,.7-.57,1.27-1.27,1.27s-1.27-.57-1.27-1.27.57-1.27,1.27-1.27,1.27.57,1.27,1.27Z"/>
                      <path class="cls-24" d="m129.52,182.56c0,.7-.57,1.27-1.27,1.27s-1.27-.57-1.27-1.27.57-1.27,1.27-1.27,1.27.57,1.27,1.27Z"/>
                      <path class="cls-24" d="m183.35,182.56c0,.7-.57,1.27-1.27,1.27s-1.27-.57-1.27-1.27.57-1.27,1.27-1.27,1.27.57,1.27,1.27Z"/>
                      <path class="cls-24" d="m237.18,182.56c0,.7-.57,1.27-1.27,1.27s-1.27-.57-1.27-1.27.57-1.27,1.27-1.27,1.27.57,1.27,1.27Z"/>
                      <path class="cls-24" d="m291.01,182.56c0,.7-.57,1.27-1.27,1.27s-1.27-.57-1.27-1.27.57-1.27,1.27-1.27,1.27.57,1.27,1.27Z"/>
                      <path class="cls-24" d="m344.85,182.56c0,.7-.57,1.27-1.27,1.27s-1.27-.57-1.27-1.27.57-1.27,1.27-1.27,1.27.57,1.27,1.27Z"/>
                      <path class="cls-24" d="m398.68,182.56c0,.7-.57,1.27-1.27,1.27s-1.27-.57-1.27-1.27.57-1.27,1.27-1.27,1.27.57,1.27,1.27Z"/>
                      <path class="cls-24" d="m452.51,182.56c0,.7-.57,1.27-1.27,1.27s-1.27-.57-1.27-1.27.57-1.27,1.27-1.27,1.27.57,1.27,1.27Z"/>
                      <path class="cls-24" d="m506.34,182.56c0,.7-.57,1.27-1.27,1.27s-1.27-.57-1.27-1.27.57-1.27,1.27-1.27,1.27.57,1.27,1.27Z"/>
                      <path class="cls-24" d="m560.18,182.56c0,.7-.57,1.27-1.27,1.27s-1.27-.57-1.27-1.27.57-1.27,1.27-1.27,1.27.57,1.27,1.27Z"/>
                    </g>
                    <g>
                      <path class="cls-24" d="m21.85,234.11c0,.7-.57,1.27-1.27,1.27s-1.27-.57-1.27-1.27.57-1.27,1.27-1.27,1.27.57,1.27,1.27Z"/>
                      <path class="cls-24" d="m75.68,234.11c0,.7-.57,1.27-1.27,1.27s-1.27-.57-1.27-1.27.57-1.27,1.27-1.27,1.27.57,1.27,1.27Z"/>
                      <path class="cls-24" d="m129.52,234.11c0,.7-.57,1.27-1.27,1.27s-1.27-.57-1.27-1.27.57-1.27,1.27-1.27,1.27.57,1.27,1.27Z"/>
                      <circle class="cls-24" cx="182.08" cy="234.11" r="1.27"/>
                      <path class="cls-24" d="m237.18,234.11c0,.7-.57,1.27-1.27,1.27s-1.27-.57-1.27-1.27.57-1.27,1.27-1.27,1.27.57,1.27,1.27Z"/>
                      <path class="cls-24" d="m291.01,234.11c0,.7-.57,1.27-1.27,1.27s-1.27-.57-1.27-1.27.57-1.27,1.27-1.27,1.27.57,1.27,1.27Z"/>
                      <path class="cls-24" d="m344.85,234.11c0,.7-.57,1.27-1.27,1.27s-1.27-.57-1.27-1.27.57-1.27,1.27-1.27,1.27.57,1.27,1.27Z"/>
                      <path class="cls-24" d="m398.68,234.11c0,.7-.57,1.27-1.27,1.27s-1.27-.57-1.27-1.27.57-1.27,1.27-1.27,1.27.57,1.27,1.27Z"/>
                      <path class="cls-24" d="m452.51,234.11c0,.7-.57,1.27-1.27,1.27s-1.27-.57-1.27-1.27.57-1.27,1.27-1.27,1.27.57,1.27,1.27Z"/>
                      <path class="cls-24" d="m506.34,234.11c0,.7-.57,1.27-1.27,1.27s-1.27-.57-1.27-1.27.57-1.27,1.27-1.27,1.27.57,1.27,1.27Z"/>
                      <path class="cls-24" d="m560.18,234.11c0,.7-.57,1.27-1.27,1.27s-1.27-.57-1.27-1.27.57-1.27,1.27-1.27,1.27.57,1.27,1.27Z"/>
                    </g>
                    <g>
                      <path class="cls-24" d="m21.85,285.66c0,.7-.57,1.27-1.27,1.27s-1.27-.57-1.27-1.27.57-1.27,1.27-1.27,1.27.57,1.27,1.27Z"/>
                      <path class="cls-24" d="m75.68,285.66c0,.7-.57,1.27-1.27,1.27s-1.27-.57-1.27-1.27.57-1.27,1.27-1.27,1.27.57,1.27,1.27Z"/>
                      <path class="cls-24" d="m129.52,285.66c0,.7-.57,1.27-1.27,1.27s-1.27-.57-1.27-1.27.57-1.27,1.27-1.27,1.27.57,1.27,1.27Z"/>
                      <path class="cls-24" d="m183.35,285.66c0,.7-.57,1.27-1.27,1.27s-1.27-.57-1.27-1.27.57-1.27,1.27-1.27,1.27.57,1.27,1.27Z"/>
                      <path class="cls-24" d="m237.18,285.66c0,.7-.57,1.27-1.27,1.27s-1.27-.57-1.27-1.27.57-1.27,1.27-1.27,1.27.57,1.27,1.27Z"/>
                      <path class="cls-24" d="m291.01,285.66c0,.7-.57,1.27-1.27,1.27s-1.27-.57-1.27-1.27.57-1.27,1.27-1.27,1.27.57,1.27,1.27Z"/>
                      <path class="cls-24" d="m344.85,285.66c0,.7-.57,1.27-1.27,1.27s-1.27-.57-1.27-1.27.57-1.27,1.27-1.27,1.27.57,1.27,1.27Z"/>
                      <path class="cls-24" d="m398.68,285.66c0,.7-.57,1.27-1.27,1.27s-1.27-.57-1.27-1.27.57-1.27,1.27-1.27,1.27.57,1.27,1.27Z"/>
                      <path class="cls-24" d="m452.51,285.66c0,.7-.57,1.27-1.27,1.27s-1.27-.57-1.27-1.27.57-1.27,1.27-1.27,1.27.57,1.27,1.27Z"/>
                      <path class="cls-24" d="m506.34,285.66c0,.7-.57,1.27-1.27,1.27s-1.27-.57-1.27-1.27.57-1.27,1.27-1.27,1.27.57,1.27,1.27Z"/>
                      <path class="cls-24" d="m560.18,285.66c0,.7-.57,1.27-1.27,1.27s-1.27-.57-1.27-1.27.57-1.27,1.27-1.27,1.27.57,1.27,1.27Z"/>
                    </g>
                    <g>
                      <path class="cls-24" d="m21.85,337.22c0,.7-.57,1.27-1.27,1.27s-1.27-.57-1.27-1.27.57-1.27,1.27-1.27,1.27.57,1.27,1.27Z"/>
                      <path class="cls-24" d="m75.68,337.22c0,.7-.57,1.27-1.27,1.27s-1.27-.57-1.27-1.27.57-1.27,1.27-1.27,1.27.57,1.27,1.27Z"/>
                      <path class="cls-24" d="m129.52,337.22c0,.7-.57,1.27-1.27,1.27s-1.27-.57-1.27-1.27.57-1.27,1.27-1.27,1.27.57,1.27,1.27Z"/>
                      <path class="cls-24" d="m183.35,337.22c0,.7-.57,1.27-1.27,1.27s-1.27-.57-1.27-1.27.57-1.27,1.27-1.27,1.27.57,1.27,1.27Z"/>
                      <path class="cls-24" d="m237.18,337.22c0,.7-.57,1.27-1.27,1.27s-1.27-.57-1.27-1.27.57-1.27,1.27-1.27,1.27.57,1.27,1.27Z"/>
                      <path class="cls-24" d="m291.01,337.22c0,.7-.57,1.27-1.27,1.27s-1.27-.57-1.27-1.27.57-1.27,1.27-1.27,1.27.57,1.27,1.27Z"/>
                      <path class="cls-24" d="m344.85,337.22c0,.7-.57,1.27-1.27,1.27s-1.27-.57-1.27-1.27.57-1.27,1.27-1.27,1.27.57,1.27,1.27Z"/>
                      <path class="cls-24" d="m398.68,337.22c0,.7-.57,1.27-1.27,1.27s-1.27-.57-1.27-1.27.57-1.27,1.27-1.27,1.27.57,1.27,1.27Z"/>
                      <path class="cls-24" d="m452.51,337.22c0,.7-.57,1.27-1.27,1.27s-1.27-.57-1.27-1.27.57-1.27,1.27-1.27,1.27.57,1.27,1.27Z"/>
                      <path class="cls-24" d="m506.34,337.22c0,.7-.57,1.27-1.27,1.27s-1.27-.57-1.27-1.27.57-1.27,1.27-1.27,1.27.57,1.27,1.27Z"/>
                      <path class="cls-24" d="m560.18,337.22c0,.7-.57,1.27-1.27,1.27s-1.27-.57-1.27-1.27.57-1.27,1.27-1.27,1.27.57,1.27,1.27Z"/>
                    </g>
                    <g>
                      <path class="cls-24" d="m21.85,388.77c0,.7-.57,1.27-1.27,1.27s-1.27-.57-1.27-1.27.57-1.27,1.27-1.27,1.27.57,1.27,1.27Z"/>
                      <path class="cls-24" d="m75.68,388.77c0,.7-.57,1.27-1.27,1.27s-1.27-.57-1.27-1.27.57-1.27,1.27-1.27,1.27.57,1.27,1.27Z"/>
                      <path class="cls-24" d="m129.52,388.77c0,.7-.57,1.27-1.27,1.27s-1.27-.57-1.27-1.27.57-1.27,1.27-1.27,1.27.57,1.27,1.27Z"/>
                      <path class="cls-24" d="m183.35,388.77c0,.7-.57,1.27-1.27,1.27s-1.27-.57-1.27-1.27.57-1.27,1.27-1.27,1.27.57,1.27,1.27Z"/>
                      <path class="cls-24" d="m237.18,388.77c0,.7-.57,1.27-1.27,1.27s-1.27-.57-1.27-1.27.57-1.27,1.27-1.27,1.27.57,1.27,1.27Z"/>
                      <path class="cls-24" d="m291.01,388.77c0,.7-.57,1.27-1.27,1.27s-1.27-.57-1.27-1.27.57-1.27,1.27-1.27,1.27.57,1.27,1.27Z"/>
                      <path class="cls-24" d="m344.85,388.77c0,.7-.57,1.27-1.27,1.27s-1.27-.57-1.27-1.27.57-1.27,1.27-1.27,1.27.57,1.27,1.27Z"/>
                      <path class="cls-24" d="m398.68,388.77c0,.7-.57,1.27-1.27,1.27s-1.27-.57-1.27-1.27.57-1.27,1.27-1.27,1.27.57,1.27,1.27Z"/>
                      <path class="cls-24" d="m452.51,388.77c0,.7-.57,1.27-1.27,1.27s-1.27-.57-1.27-1.27.57-1.27,1.27-1.27,1.27.57,1.27,1.27Z"/>
                      <path class="cls-24" d="m506.34,388.77c0,.7-.57,1.27-1.27,1.27s-1.27-.57-1.27-1.27.57-1.27,1.27-1.27,1.27.57,1.27,1.27Z"/>
                      <path class="cls-24" d="m560.18,388.77c0,.7-.57,1.27-1.27,1.27s-1.27-.57-1.27-1.27.57-1.27,1.27-1.27,1.27.57,1.27,1.27Z"/>
                    </g>
                  </g>
                </g>
              </g>
              <g class="cls-7">
                <g>
                  <path class="cls-17" d="m483.96,159.03s-12.19,28.74-44.73,10.13-35.19-37.56-97.62-19.31c-62.42,18.25-85.1,17.16-98.44-3.78-13.35-20.95-38.53-50.02-91.77-46.93-53.24,3.09-80.65-68.54-119.02-80.15C-5.99,7.38-33.8,43.21-33.8,43.21v368.8h717.47s-18.35-56.38-59.51-73.52c-41.16-17.14-35.26-28.74-39.04-57.49-3.78-28.74-82.84-48.12-77.33-90.34,5.51-42.21-23.82-31.63-23.82-31.63h0Z"/>
                  <path class="cls-16" d="m-54.69,24.66C-49.63,21.45,39.04.09,66.91,60.19c27.87,60.1,57.42,60.84,102.18,64.53,18.45,1.52,27,2.54,34.16,5.47,21.92,8.97,25.04,19.67,46.91,31.18,17.92,9.44,34.1,11.14,46.22,12.42,30.41,3.2,34.8-6.15,69.18-8.48,55.32-3.75,70.39,18.64,105.35,9.51,4.72-1.23,16.5-4.79,27.27.71,6.47,3.31,8.26,7.68,15.23,17,11.72,15.69,19.77,26.46,32.19,31.85,13.83,6.01,19.78-.49,33.36,6.84,10.63,5.74,16.5,14.4,19.15,19.27,10.84,19.94,2.59,43.7,10.37,76.52,10.43,44.02,111.89,109.19,111.89,109.19l-793.63-41.48L-54.69,24.66Z"/>
                  <path class="cls-28" d="m-2.16,55.28c26.35,49.63,51.48,63.47,70.51,66.09,16.83,2.32,35.68-1.37,56.31,10.78,6.6,3.88,11.77,9.93,19.88,20.42,20.58,26.59,31.7,41.5,68.41,31.87,36.71-9.63,68.97-32.35,99-13.9s96.56,49.7,165.16-22.87c68.59-72.57,46.09,36.77,46.09,36.77,0,0-47.54,40.6,21.79,77.06,24.47,13.63,20.48,54.3,28.54,80.68,8.06,26.37,73.98,77.26,73.98,77.26,0,0-505.13,41.14-508.46,41.69-2.43.4-9.09-5.02-19.62-9.51-63.26-27.01-92.01-5.7-116.19-28.57-16.1-15.23-28.39-48.35-38.28-53.72-.12-.07-7.62-4.13-17.85-9.67h-.02C-35.99,258.18-19.07,156.73-2.16,55.28Z"/>
                </g>
              </g>
              <g class="cls-6">
                <g>
                  <circle class="cls-13" cx="411.89" cy="356.5" r="10.86"/>
                  <circle class="cls-47" cx="181.73" cy="420.56" r="15.99"/>
                  <polygon class="cls-23" points="216.21 240.37 216.95 241.73 218.31 242.48 216.95 243.22 216.21 244.58 215.46 243.22 214.1 242.48 215.46 241.73 216.21 240.37"/>
                  <polygon class="cls-23" points="295.82 333.85 296.31 334.74 297.2 335.23 296.31 335.72 295.82 336.61 295.33 335.72 294.44 335.23 295.33 334.74 295.82 333.85"/>
                  <polygon class="cls-23" points="297.2 253.89 297.69 254.78 298.58 255.27 297.69 255.76 297.2 256.65 296.71 255.76 295.82 255.27 296.71 254.78 297.2 253.89"/>
                  <polygon class="cls-23" points="96.94 372.58 97.43 373.47 98.32 373.96 97.43 374.45 96.94 375.34 96.45 374.45 95.56 373.96 96.45 373.47 96.94 372.58"/>
                  <polygon class="cls-15" points="61.51 213.56 62 214.45 62.89 214.94 62 215.43 61.51 216.32 61.02 215.43 60.13 214.94 61.02 214.45 61.51 213.56"/>
                  <polygon class="cls-15" points="9.51 399.79 9.99 400.68 10.89 401.17 9.99 401.66 9.51 402.55 9.02 401.66 8.12 401.17 9.02 400.68 9.51 399.79"/>
                  <polygon class="cls-15" points="16.16 231.78 16.64 232.68 17.54 233.17 16.64 233.65 16.16 234.55 15.67 233.65 14.78 233.17 15.67 232.68 16.16 231.78"/>
                  <polygon class="cls-15" points="127.45 270.16 127.94 271.06 128.83 271.54 127.94 272.03 127.45 272.92 126.96 272.03 126.07 271.54 126.96 271.06 127.45 270.16"/>
                  <polygon class="cls-14" points="173.09 292.29 174.06 294.06 175.82 295.02 174.06 295.99 173.09 297.76 172.12 295.99 170.36 295.02 172.12 294.06 173.09 292.29"/>
                  <polygon class="cls-15" points="26.75 195.96 27.72 197.72 29.49 198.69 27.72 199.65 26.75 201.42 25.79 199.65 24.02 198.69 25.79 197.72 26.75 195.96"/>
                  <polygon class="cls-15" points="411.89 271.54 412.85 273.31 414.62 274.28 412.85 275.24 411.89 277.01 410.92 275.24 409.16 274.28 410.92 273.31 411.89 271.54"/>
                  <polygon class="cls-15" points="403.96 403.43 404.92 405.2 406.69 406.17 404.92 407.13 403.96 408.9 402.99 407.13 401.22 406.17 402.99 405.2 403.96 403.43"/>
                  <polygon class="cls-15" points="32.05 369.91 32.51 370.74 33.34 371.2 32.51 371.66 32.05 372.49 31.59 371.66 30.75 371.2 31.59 370.74 32.05 369.91"/>
                  <polygon class="cls-14" points="227.75 359.62 228.21 360.46 229.04 360.91 228.21 361.37 227.75 362.21 227.29 361.37 226.45 360.91 227.29 360.46 227.75 359.62"/>
                  <polygon class="cls-14" points="238.51 397.87 238.97 398.71 239.81 399.17 238.97 399.62 238.51 400.46 238.05 399.62 237.22 399.17 238.05 398.71 238.51 397.87"/>
                  <polygon class="cls-14" points="338.02 255.35 338.48 256.19 339.32 256.65 338.48 257.11 338.02 257.94 337.56 257.11 336.73 256.65 337.56 256.19 338.02 255.35"/>
                  <polygon class="cls-15" points="390.5 335.32 390.96 336.15 391.79 336.61 390.96 337.07 390.5 337.91 390.04 337.07 389.2 336.61 390.04 336.15 390.5 335.32"/>
                  <polygon class="cls-15" points="358.48 222.9 358.93 223.73 359.77 224.19 358.93 224.65 358.48 225.49 358.02 224.65 357.18 224.19 358.02 223.73 358.48 222.9"/>
                  <polygon class="cls-14" points="250.56 283.5 251.4 285.02 252.92 285.86 251.4 286.69 250.56 288.21 249.73 286.69 248.21 285.86 249.73 285.02 250.56 283.5"/>
                  <polygon class="cls-19" points="162.02 366.97 163.16 369.06 165.25 370.2 163.16 371.34 162.02 373.42 160.88 371.34 158.8 370.2 160.88 369.06 162.02 366.97"/>
                  <polygon class="cls-19" points="342.59 367.95 343 368.69 343.74 369.09 343 369.5 342.59 370.23 342.19 369.5 341.45 369.09 342.19 368.69 342.59 367.95"/>
                  <polygon class="cls-19" points="363.55 287.07 363.95 287.81 364.69 288.21 363.95 288.62 363.55 289.35 363.15 288.62 362.41 288.21 363.15 287.81 363.55 287.07"/>
                  <polygon class="cls-12" points="80.81 288.94 81.53 290.26 82.86 290.99 81.53 291.71 80.81 293.04 80.08 291.71 78.76 290.99 80.08 290.26 80.81 288.94"/>
                  <polygon class="cls-12" points="297.2 371.03 297.72 371.98 298.67 372.49 297.72 373.01 297.2 373.96 296.68 373.01 295.73 372.49 296.68 371.98 297.2 371.03"/>
                  <polygon class="cls-12" points="321.45 400.05 321.97 401 322.92 401.52 321.97 402.04 321.45 402.98 320.93 402.04 319.98 401.52 320.93 401 321.45 400.05"/>
                  <polygon class="cls-12" points="318.52 293.56 319.03 294.5 319.98 295.02 319.03 295.54 318.52 296.49 318 295.54 317.05 295.02 318 294.5 318.52 293.56"/>
                  <polygon class="cls-12" points="238.51 315.58 239.03 316.53 239.98 317.05 239.03 317.57 238.51 318.51 237.99 317.57 237.04 317.05 237.99 316.53 238.51 315.58"/>
                  <polygon class="cls-12" points="448.15 328.4 448.67 329.35 449.62 329.87 448.67 330.39 448.15 331.33 447.63 330.39 446.68 329.87 447.63 329.35 448.15 328.4"/>
                  <g class="cls-11">
                    <path class="cls-45" d="m76.86,251.02c-1.21,4.58-5.91,7.32-10.49,6.1s-7.32-5.91-6.1-10.49,5.91-7.32,10.49-6.1,7.32,5.91,6.1,10.49h0Z"/>
                    <path class="cls-46" d="m77.49,248.65s.87.26,2.37.81c.75.28,1.65.63,2.66,1.1,1.01.49,2.17.99,3.24,2,.24.28.56.59.56,1.16-.01.08,0,.11-.04.24l-.05.12c-.06.12-.19.28-.27.34-.19.17-.38.25-.58.34-.78.29-1.56.35-2.37.4-1.6.06-3.27-.04-4.97-.26-3.41-.43-7-1.16-10.54-2.07-3.52-.96-7.01-2.1-10.18-3.41-1.59-.65-3.09-1.38-4.45-2.23-.67-.44-1.33-.88-1.86-1.52-.13-.17-.26-.34-.33-.58-.08-.22-.11-.54.04-.79.03-.12.36-.46.51-.5.19-.12.37-.16.55-.23,1.43-.35,2.69-.21,3.81-.14,1.11.1,2.07.23,2.86.36,1.57.26,2.46.47,2.46.47,0,0-.9-.11-2.49-.24-.79-.07-1.75-.14-2.85-.15-1.09,0-2.37,0-3.59.33-.13.06-.29.1-.39.18-.06.03-.12.07-.12.09,0,0-.03.02-.04.02-.02.02-.04.07-.06.11-.08.1.04.35.24.59.43.48,1.07.88,1.72,1.26,1.33.75,2.83,1.39,4.4,2.02,3.14,1.25,6.6,2.32,10.1,3.22,3.48.95,7.03,1.72,10.37,2.19,1.67.22,3.3.41,4.82.42,1.41,0,3.47-.23,2.29-1.3-.89-.9-2.01-1.52-2.96-2.06-.96-.53-1.83-.95-2.56-1.28-1.44-.66-2.28-1.02-2.28-1.02h-.02Z"/>
                  </g>
                  <g>
                    <path class="cls-50" d="m107.67,297.37l39.06,35.87c.22.2.24.54.04.76h0c-.2.22-.53.24-.76.05l-40.27-34.5c-.62-.53-.68-1.46-.14-2.07h0c.54-.61,1.47-.66,2.07-.11Z"/>
                    <path class="cls-48" d="m122.27,311.09l23.94,21.98c.13.12.14.33.02.47h0c-.12.14-.33.15-.46.03l-24.68-21.14c-.38-.32-.42-.9-.09-1.27h0c.33-.37.9-.4,1.27-.06h0Z"/>
                  </g>
                  <g class="cls-2">
                    <path class="cls-49" d="m316.29,255.66l18.75,17.22c.1.1.11.26.02.36h0c-.09.11-.26.12-.36.02l-19.34-16.57c-.3-.25-.33-.7-.07-.99h0c.26-.29.71-.31.99-.05h.01Z"/>
                    <path class="cls-43" d="m323.3,262.25l11.49,10.55c.06.06.07.16.01.22h0c-.06.07-.16.07-.22.02l-11.85-10.15c-.18-.16-.2-.43-.04-.61h0c.16-.18.43-.19.61-.03h0Z"/>
                  </g>
                  <g class="cls-4">
                    <g>
                      <path class="cls-44" d="m28.71,284.01l51.87,47.62c.29.27.31.71.05,1.01h0c-.26.29-.71.32-1.01.07l-53.47-45.81c-.82-.7-.9-1.94-.19-2.75h0c.72-.81,1.96-.87,2.75-.14Z"/>
                      <path class="cls-64" d="m48.09,302.23l31.78,29.18c.18.16.19.44.03.62h0c-.16.18-.43.2-.62.04l-32.77-28.07c-.5-.43-.55-1.19-.11-1.68h0c.44-.49,1.2-.53,1.69-.09Z"/>
                    </g>
                    <g>
                      <path class="cls-65" d="m10.99,289.17l23.8,21.85c.13.12.14.33.02.46h0c-.12.13-.33.15-.46.03l-24.53-21.02c-.38-.32-.42-.89-.09-1.26h0c.33-.37.9-.4,1.26-.06Z"/>
                      <path class="cls-63" d="m19.89,297.53l14.58,13.39c.08.07.09.2,0,.28h0c-.07.08-.2.09-.28.02l-15.03-12.88c-.23-.2-.25-.55-.05-.77h0c.2-.23.55-.24.77-.04Z"/>
                    </g>
                  </g>
                  <g>
                    <path class="cls-62" d="m395.97,290.82l23.8,21.85c.13.12.14.33.02.46h0c-.12.13-.33.15-.46.03l-24.53-21.02c-.38-.32-.42-.89-.09-1.26h0c.33-.37.9-.4,1.26-.06Z"/>
                    <path class="cls-52" d="m404.87,299.18l14.58,13.39c.08.07.09.2.01.28h0c-.07.08-.2.09-.28.02l-15.03-12.88c-.23-.2-.25-.55-.05-.77h0c.2-.23.55-.24.77-.04Z"/>
                  </g>
                  <g>
                    <path class="cls-58" d="m173.64,223.39c0,3.11-.44,6.1-1.24,8.94-3.88,13.52-16.34,23.42-31.11,23.42-16.51,0-30.14-12.38-32.11-28.35-.17-1.32-.25-2.65-.25-4.01,0-5.26,1.25-10.22,3.49-14.61,5.33-10.52,16.26-17.74,28.86-17.74s24.55,7.89,29.58,19.22c1.78,4.01,2.78,8.45,2.78,13.13Z"/>
                    <path class="cls-60" d="m170.87,210.26c-15.64-8.03-21-4.66-37.71,1.29-9.55,3.41-16.52.41-20.73-2.78,5.33-10.52,16.26-17.74,28.86-17.74s24.55,7.89,29.58,19.22h0Z"/>
                    <path class="cls-61" d="m172.4,232.33c-3.88,13.52-16.34,23.42-31.11,23.42-16.51,0-30.14-12.38-32.11-28.35,4.37,4,11.42,8.31,21.39,7.72,17.01-1,30.08-13.02,41.83-2.79Z"/>
                  </g>
                  <g>
                    <path class="cls-53" d="m528.6,394.42c-.98,2.9-2.33,5.55-3.98,7.95-7.89,11.38-22.63,16.69-36.41,12.03-15.4-5.21-24.21-21.05-21.01-36.57.26-1.28.6-2.55,1.03-3.82,1.66-4.91,4.39-9.14,7.87-12.53,8.29-8.13,20.76-11.42,32.52-7.45,12.31,4.16,20.41,15.1,21.53,27.26.4,4.3-.08,8.76-1.55,13.13Z"/>
                    <path class="cls-59" d="m530.15,381.3c-12.06-12.42-18.12-10.97-35.59-10.69-9.98.17-15.54-4.82-18.47-9.13,8.29-8.13,20.76-11.42,32.52-7.45,12.31,4.16,20.41,15.1,21.53,27.26h.01Z"/>
                    <path class="cls-55" d="m524.62,402.37c-7.89,11.38-22.63,16.69-36.41,12.03-15.4-5.21-24.21-21.05-21.01-36.57,2.82,5.11,8.04,11.35,17.52,13.94,16.18,4.43,32.16-2.66,39.9,10.6Z"/>
                  </g>
                </g>
              </g>
            </g>
          </g>
        </g>
        <g>
          <g>
            <path class="cls-56" d="m524.56,90.36l-59.24,83.22-11.5-8.19,59.24-83.22c4.26-5.98,9.39-11.28,15.22-15.73l4.9-3.73c.13-.1.26-.18.4-.24,1.54-.71,3.35.75,2.78,2.51l-1.92,5.85c-2.29,6.97-5.62,13.55-9.88,19.53Z"/>
            <path class="cls-20" d="m521.69,88.31l-59.24,83.22-8.63-6.14,59.24-83.22c4.26-5.98,9.39-11.28,15.22-15.73l4.9-3.73c.13-.1.26-.18.4-.24-.01.15-.04.31-.1.46l-1.92,5.85c-2.29,6.97-5.62,13.55-9.88,19.53Z"/>
            <path class="cls-54" d="m522.33,88.68l-59.24,83.22-8.63-6.14,59.24-83.22c4.26-5.98,9.39-11.28,15.22-15.73l4.9-3.73c.13-.1.26-.18.4-.24-.01.15-.04.31-.1.46l-1.92,5.85c-2.29,6.97-5.62,13.55-9.88,19.53Z"/>
            <polygon class="cls-51" points="464.62 182.18 445.93 168.88 458.34 159.05 469.84 167.24 464.62 182.18"/>
            <polygon class="cls-26" points="460.07 178.94 445.93 168.88 458.34 159.05 465.29 164 460.07 178.94"/>
            <polygon class="cls-42" points="461.05 179.51 445.93 168.88 459.32 159.63 466.27 164.57 461.05 179.51"/>
            <rect class="cls-37" x="446.81" y="175.3" width="15.98" height=".95" transform="translate(186.21 -231.17) rotate(35.44)"/>
            <rect class="cls-38" x="457.15" y="162.76" width="14.12" height=".42" transform="translate(180.53 -239) rotate(35.44)"/>
          </g>
          <g>
            <path class="cls-57" d="m565.96,121l-59.24,83.22-11.5-8.19,59.24-83.22c4.26-5.98,9.39-11.28,15.22-15.73l4.9-3.73c.13-.1.26-.18.4-.24,1.54-.71,3.35.75,2.78,2.51l-1.92,5.85c-2.29,6.97-5.62,13.55-9.88,19.53Z"/>
            <path class="cls-25" d="m563.08,118.95l-59.24,83.22-8.63-6.14,59.24-83.22c4.26-5.98,9.39-11.28,15.22-15.73l4.9-3.73c.13-.1.26-.18.4-.24-.01.15-.04.31-.1.46l-1.92,5.85c-2.29,6.97-5.62,13.55-9.88,19.53Z"/>
            <path class="cls-66" d="m563.36,119.22l-59.24,83.22-8.63-6.14,59.24-83.22c4.26-5.98,9.39-11.28,15.22-15.73l4.9-3.73c.13-.1.26-.18.4-.24-.01.15-.04.31-.1.46l-1.92,5.85c-2.29,6.97-5.62,13.55-9.88,19.53Z"/>
            <polygon class="cls-36" points="506.01 212.82 487.32 199.51 499.73 189.69 511.23 197.88 506.01 212.82"/>
            <polygon class="cls-26" points="501.46 209.58 487.32 199.51 499.73 189.69 506.68 194.64 501.46 209.58"/>
            <polygon class="cls-35" points="502.15 210.1 488.01 200.04 500.41 190.21 507.36 195.16 502.15 210.1"/>
            <rect class="cls-41" x="488.2" y="205.94" width="15.98" height=".95" transform="translate(211.65 -249.49) rotate(35.44)"/>
            <rect class="cls-40" x="498.54" y="193.4" width="14.12" height=".42" transform="translate(205.97 -257.32) rotate(35.44)"/>
          </g>
          <g>
            <path class="cls-68" d="m571.09,92.95l-79.56,111.76-34.31-24.42,79.56-111.76c8.62-12.11,20.58-21.44,34.42-26.84l7.07-2.76h.02c3.53-1.39,7.32,1.3,7.17,5.09l-.29,7.61c-.57,14.85-5.47,29.21-14.08,41.31Z"/>
            <path class="cls-26" d="m563.9,87.82l-79.56,111.76-27.11-19.3,79.56-111.76c8.62-12.11,20.58-21.44,34.42-26.84l7.07-2.76-.29,7.58c-.57,14.85-5.47,29.21-14.08,41.31Z"/>
            <path class="cls-67" d="m564.25,87.92l-79.56,111.76-27.11-19.3,79.56-111.76c8.62-12.11,20.58-21.44,34.42-26.84l7.07-2.76-.29,7.58c-.57,14.85-5.47,29.21-14.08,41.31Z"/>
          </g>
          <g class="cls-5">
            <path class="cls-34" d="m568.49,74.21c-.16-.11-.33-.22-.5-.31-.05-.03-.11-.05-.17-.08-.12-.06-.24-.12-.37-.17-.07-.03-.14-.05-.21-.07-.12-.04-.24-.08-.36-.12-.07-.02-.15-.04-.23-.05-.12-.03-.24-.05-.37-.07-.08-.01-.16-.02-.24-.03-.12-.01-.24-.02-.37-.02-.08,0-.17,0-.25,0-.12,0-.24.01-.36.03-.09,0-.18.02-.27.03-.11.02-.23.05-.34.07-.1.02-.19.04-.29.07-.02,0-.04,0-.06.01-.17.05-.34.12-.52.19-2.37,1.03-4.69,2.18-6.94,3.43-10.44,5.79-19.49,13.86-26.46,23.65l-25.49,35.81-37.71,9.37-16.3,20.71.52.3-1.16,1.48,18.48,10.57.91.52-6.62,5.45c-1.13.93-1.07,2.67.12,3.52l1.38.98-1.04,1.47,10.33,7.35,1.04-1.47,3.21,2.28-4.31,6.34c-.39.57-.25,1.34.31,1.74.06.04.13.06.2.09.06.06.1.13.17.18.56.4,1.34.28,1.75-.28l4.59-6.16,2.57,1.83-1.04,1.47,10.33,7.35,1.04-1.47,1.66,1.19c1.19.85,2.86.33,3.37-1.04l2.98-8.04.63.55,16.2,14.14,1.01-1.58.07.06,14.23-22.18-3.44-38.03,25.76-36.19c4.23-5.95,7.62-12.41,10.08-19.21,1.61-4.43,2.82-8.99,3.62-13.65.44-2.5.75-5.01.95-7.55.15-1.88-.74-3.5-2.09-4.46Z"/>
          </g>
          <g>
            <g>
              <polygon class="cls-18" points="480.62 183.53 445.91 165.82 462.85 143.33 516.34 130.05 480.62 183.53"/>
              <polygon class="cls-39" points="481.28 184.31 447.22 164.82 462.21 145.11 517 130.83 481.28 184.31"/>
              <polygon class="cls-22" points="485.67 187.07 514.15 214.4 529.46 190.69 524.5 135.81 485.67 187.07"/>
            </g>
            <g>
              <polygon class="cls-29" points="479.98 185.31 464.39 176.39 445.91 165.82 462.21 145.11 489.87 138.25 515.7 131.83 479.98 185.31"/>
              <polygon class="cls-30" points="464.39 176.39 445.91 165.82 462.21 145.11 489.87 138.25 464.39 176.39"/>
              <polygon class="cls-31" points="514.15 214.4 497.95 200.26 484.59 188.59 523.42 137.33 525.79 163.53 528.38 192.21 514.15 214.4"/>
              <polygon class="cls-32" points="514.15 214.4 497.95 200.26 525.79 163.53 528.38 192.21 514.15 214.4"/>
            </g>
            <path class="cls-69" d="m551.79,116.47l-56.69,79.64-25.73-18.32,56.69-79.64c6.96-9.78,16.02-17.85,26.46-23.65,2.25-1.25,4.57-2.39,6.94-3.43.17-.07.34-.14.52-.19,1.57-.49,3.16-.16,4.38.7,1.35.96,2.23,2.58,2.09,4.46-.2,2.54-.51,5.06-.95,7.55-.81,4.66-2.02,9.22-3.62,13.65-2.46,6.8-5.84,13.27-10.08,19.21Z"/>
            <path class="cls-22" d="m545.31,111.86l-56.69,79.64-19.25-13.71,56.69-79.64c6.96-9.78,16.02-17.85,26.46-23.65,2.25-1.25,4.57-2.39,6.94-3.43.17-.07.34-.14.52-.19,0,.18,0,.36-.01.55-.2,2.54-.51,5.06-.95,7.55-.81,4.66-2.02,9.22-3.62,13.65-2.46,6.8-5.84,13.27-10.08,19.21Z"/>
            <path class="cls-70" d="m546.04,112.28l-56.69,79.64-19.25-13.71,56.69-79.64c6.96-9.78,16.02-17.85,26.46-23.65,2.25-1.25,4.57-2.39,6.94-3.43.17-.07.34-.14.52-.19,0,.18,0,.36-.01.55-.2,2.54-.51,5.06-.95,7.55-.81,4.66-2.02,9.22-3.62,13.65-2.46,6.8-5.84,13.27-10.08,19.21Z"/>
            <path class="cls-21" d="m490.98,208.79l-32.19-22.91c-1.19-.85-1.25-2.59-.12-3.52l22.42-18.43c3.11-2.56,7.55-2.71,10.84-.37l9.3,6.62c3.28,2.34,4.59,6.58,3.19,10.36l-10.08,27.22c-.51,1.37-2.18,1.88-3.37,1.04Z"/>
            <path class="cls-72" d="m503.24,181.87l-9.89,26.72c-.5,1.35-2.14,1.85-3.3,1.03l-14.48-10.3-2.31-1.64-14.82-10.55c-1.16-.84-1.22-2.55-.11-3.46l22.01-18.1c3.06-2.51,7.42-2.66,10.64-.36l2.95,2.1,3.59,2.56,2.59,1.84c3.22,2.29,4.52,6.46,3.14,10.17Z"/>
            <rect class="cls-27" x="457.41" y="191.05" width="12.68" height="1.8" transform="translate(197.26 -233.36) rotate(35.44)"/>
            <rect class="cls-27" x="476.22" y="204.44" width="12.68" height="1.8" transform="translate(208.5 -241.78) rotate(35.44)"/>
            <path class="cls-74" d="m552.99,99.43c-.25-.18-.43-.45-.48-.77-.83-4.93-5.52-8.27-10.45-7.44-.64.11-1.25-.33-1.36-.97-.11-.64.33-1.25.97-1.36,6.22-1.05,12.13,3.16,13.18,9.38.11.64-.33,1.25-.97,1.36-.32.05-.64-.03-.88-.2Z"/>
            <path class="cls-73" d="m565.49,83.61c-1.83-5.12-5.99-8.22-12.98-9.1,2.25-1.25,4.57-2.39,6.94-3.43,1.73-.75,3.54-.45,4.9.51,1.35.96,2.23,2.58,2.09,4.46-.2,2.54-.51,5.06-.95,7.55Z"/>
            <path class="cls-33" d="m498.43,168.63l-.92,1.23-21.95,29.45-2.31-1.64,20.66-30.38.86-1.27c1.99-.03,3.06,1,3.66,2.6Z"/>
            <path class="cls-71" d="m494.04,165.33c1.99-.03,3.06,1.01,3.65,2.6l-27.01,36.27c-.41.55-1.19.67-1.75.28h0c-.56-.4-.7-1.17-.31-1.74l25.43-37.4Z"/>
          </g>
        </g>
      </g>
    </g>
  </g>
</svg>